<?xml version="1.0" encoding="UTF-8" standalone="no"?>
<!-- Created with Inkscape (http://www.inkscape.org/) -->

<svg
   xmlns:dc="http://purl.org/dc/elements/1.1/"
   xmlns:cc="http://creativecommons.org/ns#"
   xmlns:rdf="http://www.w3.org/1999/02/22-rdf-syntax-ns#"
   xmlns:svg="http://www.w3.org/2000/svg"
   xmlns="http://www.w3.org/2000/svg"
   xmlns:sodipodi="http://sodipodi.sourceforge.net/DTD/sodipodi-0.dtd"
   xmlns:inkscape="http://www.inkscape.org/namespaces/inkscape"
   version="1.1"
   width="92.837944"
   height="125.21147"
   id="svg2"
   inkscape:version="0.48.4 r9939"
   sodipodi:docname="rheia-logo.svg">
  <sodipodi:namedview
     pagecolor="#000000"
     bordercolor="#666666"
     borderopacity="1"
     objecttolerance="10"
     gridtolerance="10"
     guidetolerance="10"
     inkscape:pageopacity="0"
     inkscape:pageshadow="2"
     inkscape:window-width="1920"
     inkscape:window-height="1055"
     id="namedview14"
     showgrid="false"
     fit-margin-top="0"
     fit-margin-left="0"
     fit-margin-right="0"
     fit-margin-bottom="0"
     inkscape:zoom="1.587517"
     inkscape:cx="-76.027924"
     inkscape:cy="-69.402084"
     inkscape:window-x="0"
     inkscape:window-y="24"
     inkscape:window-maximized="1"
     inkscape:current-layer="svg2" />
  <defs
     id="defs4" />
  <metadata
     id="metadata7">
    <rdf:RDF>
      <cc:Work
         rdf:about="">
        <dc:format>image/svg+xml</dc:format>
        <dc:type
           rdf:resource="http://purl.org/dc/dcmitype/StillImage" />
        <dc:title />
      </cc:Work>
    </rdf:RDF>
  </metadata>
  <g
     transform="translate(-159.37597,-340.6301)"
     id="layer1"
     style="fill:#ffffff">
    <g
       id="g3023"
       style="fill:#ffffff">
      <g
         id="g3026"
         style="fill:#ffffff">
        <g
           id="g3041"
           style="fill:#ffffff">
          <path
             d="m 188.9001,444.80035 c 0.15589,-4.38234 1.04751,-8.03287 2.96369,-12.13412 3.76701,-8.06262 7.08282,-20.32916 8.51448,-31.49852 0.66039,-5.15214 1.60502,-10.40119 2.09918,-11.66457 0.49417,-1.26338 0.89848,-3.19823 0.89848,-4.29966 0,-5.81771 9.92602,-17.96545 16.75989,-20.51123 2.60706,-0.9712 5.8133,-2.58172 7.12497,-3.57894 1.31167,-0.99721 3.06892,-1.81312 3.90499,-1.81312 2.34281,0 -1.14522,-3.46609 -5.63076,-5.59534 -2.12865,-1.01044 -3.09502,-1.92518 -2.31048,-2.187 1.91099,-0.63775 6.03937,1.60867 10.34497,5.6291 3.21997,3.00671 4.38904,3.46282 9.1174,3.55713 5.27571,0.10523 5.39584,0.0467 4.3989,-2.1413 -0.88159,-1.93486 -4.92179,-4.70713 -14.42435,-9.89754 -5.00096,-2.73159 -14.22136,-5.36505 -18.78438,-5.36505 -9.17688,0 -22.90562,2.21622 -25.65552,4.14155 -1.4599,1.02215 -2.90242,1.85845 -3.20559,1.85845 -0.30318,0 -3.14903,1.81977 -6.32412,4.04392 -4.0037,2.80461 -6.21301,5.17971 -7.20901,7.75 -1.63881,4.22914 -5.10237,9.54395 -5.77879,8.86753 -0.24954,-0.24954 1.12949,-3.76295 3.06451,-7.80758 2.63242,-5.50237 4.47358,-7.95896 7.31279,-9.7572 2.08702,-1.32182 6.11642,-3.93612 8.95421,-5.80953 4.78826,-3.16105 5.97586,-3.46847 16.5,-4.27112 6.2372,-0.4757 12.08275,-1.15474 12.99011,-1.50898 4.47835,-1.74838 29.77194,9.87396 34.87797,16.02635 2.14374,2.58305 2.17766,11.9326 0.0532,14.65474 -1.49587,1.91667 -1.6731,3.25207 -1.03678,7.81187 0.42214,3.025 0.53159,7.98433 0.24323,11.02073 -0.28837,3.03641 0.006,8.07727 0.6551,11.20192 1.54064,7.42122 0.29597,10.27503 -4.09811,9.39621 -2.67481,-0.53496 -2.90437,-0.38347 -2.30078,1.51829 0.36877,1.1619 0.28484,2.39386 -0.18652,2.7377 -0.47135,0.34383 -1.40813,1.61332 -2.08172,2.82109 -1.35212,2.42439 -0.67966,5.01033 3.97974,15.30406 -0.32332,44.759 -55.54418,17.2736 -55.7309,11.50016 z m 36.86767,1.25093 c 0.83214,-0.83214 1.25584,-1.77013 0.94155,-2.08441 -1.18345,-1.18346 -3.20777,2.19512 -3.51461,5.86588 -4.39766,13.67675 -0.022,-10.99457 0.1551,-11.59046 l 1.69689,-5.5579 -3.85717,-1.20382 c -3.90379,-1.21837 -9.81354,-5.71343 -9.81354,-7.46436 0,-0.52436 1.4625,0.15022 3.25,1.49907 4.30172,3.24609 8.2359,4.43282 13.98097,4.21733 8.01917,-0.30079 11.92933,-4.38782 8.17107,-8.54066 -1.73403,-1.91608 -1.14669,-3.89175 1.15698,-3.89175 0.79254,0 1.44098,-0.49815 1.44098,-1.10699 0,-0.60884 -0.63692,-0.86258 -1.41539,-0.56385 -0.77846,0.29872 -2.69096,0.16055 -4.25,-0.30706 -2.24543,-0.67348 -2.4189,-0.89883 -0.83461,-1.08421 1.1,-0.1287 2.675,-0.32576 3.5,-0.43789 0.825,-0.11213 2.2875,-0.27051 3.25,-0.35194 1.13079,-0.0957 1.75,-0.98357 1.75,-2.50939 0,-1.97952 -0.40423,-2.28405 -2.5,-1.88342 -2.52948,0.48354 -2.99614,-0.29876 -1.89301,-3.17346 0.94959,-2.47461 2.61855,-1.86776 1.81615,0.66037 -0.63051,1.98657 -0.52565,2.08781 0.91988,0.88812 0.98101,-0.81417 2.33433,-1.05017 3.39425,-0.59192 3.85884,1.66834 5.52178,1.57109 4.74791,-0.27768 -0.40535,-0.96837 -1.02632,-5.81068 -1.37995,-10.76068 -0.56002,-7.83922 -0.7446,-8.5083 -1.4311,-5.18766 -0.58693,2.83905 -1.22037,3.72283 -2.48114,3.46169 -0.97972,-0.20292 -1.61881,-1.17713 -1.51691,-2.31235 0.17403,-1.93894 0.15955,-1.93918 -1.25,-0.0206 -0.78435,1.06762 -1.42608,2.7248 -1.42608,3.68261 0,0.95782 -0.93391,2.0379 -2.07536,2.40018 -2.97427,0.94399 -3.68008,-0.29492 -0.81982,-1.43905 2.21842,-0.88739 2.24043,-0.96277 0.29819,-1.02148 -1.15334,-0.0349 -3.06857,-0.90603 -4.25605,-1.93593 -1.77081,-1.53581 -1.91664,-2.07372 -0.811,-2.99132 0.74143,-0.61533 1.68165,-0.78519 2.08938,-0.37746 0.40773,0.40772 0.59133,0.11734 0.40799,-0.6453 -0.3444,-1.4327 4.78452,-3.4676 6.33099,-2.51182 0.45962,0.28406 0.83568,-0.023 0.83568,-0.68245 0,-0.85898 -1.59914,-1.03387 -5.63998,-0.61682 -5.38594,0.55588 -5.53695,0.50994 -3.35268,-1.01999 2.89949,-2.03087 13.79367,-2.12821 15.20638,-0.13586 0.67555,0.95272 0.79006,0.61322 0.38668,-1.14644 -0.3152,-1.375 -0.57924,-4.23564 -0.58675,-6.35699 -0.0107,-3.0243 -0.33936,-3.732 -1.52233,-3.27805 -0.82978,0.31841 -2.71261,0.1212 -4.18408,-0.43825 -2.738,-1.04099 -11.1315,0.25427 -14.30724,2.20785 -6.75437,4.15499 -6.98744,4.40721 -6.99368,7.56839 -0.008,4.21621 -1.76256,7.90731 -4.66045,9.80608 -1.32996,0.87142 -2.34587,2.52809 -2.34587,3.82546 0,3.60024 -3.73193,6.96912 -6.99681,6.31615 -2.67763,-0.53553 -2.74644,-0.42782 -3.29084,5.1512 -0.55887,5.72725 -3.92926,17.25572 -7.22061,24.69816 -13.94733,20.22701 21.79206,21.78592 30.90004,13.25113 z m 8.99767,2.58612 c -1.5892,-2.04447 -3.20248,-4.18119 -3.58508,-4.74825 -0.38259,-0.56707 -0.99144,-0.73521 -1.35299,-0.37366 -0.36155,0.36155 1.05003,2.69996 3.13686,5.19647 4.4872,5.36814 5.98373,5.30619 1.80121,-0.0746 z m 11.61055,1.1628 c -0.58078,-1.52756 -1.28521,-2.54812 -1.56542,-2.26791 -0.19303,2.64934 3.61613,7.80398 1.56542,2.26791 z m -7.94318,-5.77778 c -1.28264,-1.22222 -1.97507,-1.54722 -1.53874,-0.72222 1.39371,2.6352 2.75059,4.06466 3.31887,3.49639 0.30356,-0.30357 -0.49749,-1.55195 -1.78013,-2.77417 z m 3.94318,1.47478 c 0,-1.23296 -6.17746,-9.35287 -6.71018,-8.82015 -0.39545,0.39545 5.7204,9.46874 6.46018,9.58415 0.1375,0.0215 0.25,-0.32235 0.25,-0.764 z m -8.40838,-3.01983 c -1.85671,-3.59047 -4.59162,-6.03514 -4.59162,-4.10433 0,1.13989 4.77271,6.92716 5.71277,6.92716 0.18623,0 -0.31829,-1.27027 -1.12115,-2.82283 z m 10.82493,0.46596 c -0.34679,-0.90372 -1.0362,-1.64313 -1.53201,-1.64313 -0.49582,0 -0.35221,0.87953 0.31913,1.95452 1.41549,2.26655 2.13158,2.0827 1.21288,-0.31139 z m -17.41655,-2.64313 c 0,-0.55 -0.47656,-1 -1.05902,-1 -0.58246,0 -0.7809,0.45 -0.44098,1 0.33992,0.55 0.81648,1 1.05902,1 0.24254,0 0.44098,-0.45 0.44098,-1 z m 5.02006,-4.47583 c -0.69572,-0.83829 -1.72959,-1.52417 -2.29749,-1.52417 -0.5679,0 -0.21556,0.90276 0.78298,2.00613 2.06806,2.28519 3.44688,1.8464 1.51451,-0.48196 z m 7.10775,0.71464 c -0.51841,-0.96865 -1.96159,-2.65615 -3.20708,-3.75 -2.60799,-2.29046 -1.70495,-0.19043 1.40235,3.26119 2.43278,2.70236 3.08374,2.87867 1.80473,0.48881 z M 208.15348,399.7435 c 1.22238,-0.85619 2.22251,-2.51604 2.22251,-3.68857 l 0,-2.13185 -2.03896,2.18856 c -1.12142,1.20371 -2.58392,2.17425 -3.25,2.15676 -0.66607,-0.0175 -0.31323,-0.71026 0.78409,-1.53949 1.5881,-1.2001 1.71933,-1.67813 0.64324,-2.3432 -0.94258,-0.58254 -1.0168,-1.04261 -0.24513,-1.51953 0.60872,-0.37621 1.10676,-0.13771 1.10676,0.52999 0,0.82334 0.56315,0.71466 1.75,-0.33775 0.9625,-0.85346 2.618,-1.7107 3.67889,-1.90498 3.0583,-0.56007 1.39371,-2.37957 -1.92889,-2.1084 -6.48818,0.52953 -6.61414,0.59317 -6.37157,3.21945 0.12882,1.39464 -0.10143,3.54418 -0.51165,4.77676 -0.74052,2.22495 -0.15799,4.25895 1.21973,4.25895 0.39516,0 1.71861,-0.70052 2.94098,-1.5567 z m 27.72251,-6.4433 c -0.33992,-0.55 -1.06803,-1 -1.61803,-1 -0.55,0 -0.72189,0.45 -0.38197,1 0.33992,0.55 1.06803,1 1.61803,1 0.55,0 0.72189,-0.45 0.38197,-1 z m 3.76903,-4.65594 c -0.67703,-0.27392 -2.02703,-0.29059 -3,-0.037 -0.97297,0.25355 -0.41903,0.47767 1.23097,0.49804 1.65,0.0204 2.44606,-0.18706 1.76903,-0.46098 z m -27.62185,-2.30554 c 5.46655,-1.39753 6.47361,-3.6913 1.48929,-3.39216 -2.15423,0.12929 -2.65323,0.005 -1.22423,-0.30487 1.32673,-0.28771 3.02413,-1.135 3.77199,-1.88286 1.14633,-1.14634 0.80696,-1.46346 -2.16224,-2.02048 -5.46646,-1.02552 -4.14798,-2.54829 1.72801,-1.99576 4.17332,0.39243 5.76271,0.0975 7.75,-1.43829 l 2.5,-1.93196 -4,0.54675 c -2.99838,0.40984 -3.62439,0.27944 -2.5,-0.52076 0.825,-0.58713 4.0324,-1.0744 7.12756,-1.08282 3.6188,-0.01 6.04716,-0.52091 6.8031,-1.43176 0.9332,-1.12444 0.80383,-1.51283 -0.62756,-1.884 -1.27375,-0.33029 -1.06109,-0.5016 0.72439,-0.58355 1.39013,-0.0638 3.5217,0.58037 4.73684,1.43148 1.99399,1.39665 2.15146,1.39665 1.61552,0 -0.32661,-0.85111 -1.16558,-1.54748 -1.86439,-1.54748 -0.69882,0 -1.83932,-0.6853 -2.53446,-1.52289 -1.07186,-1.29152 -0.97652,-1.42081 0.62756,-0.85099 1.04029,0.36955 2.85707,1.53926 4.03729,2.59936 1.33849,1.20227 3.21971,1.80463 5,1.60099 2.27076,-0.25974 2.91882,-0.88847 3.17053,-3.07598 0.25374,-2.20521 -0.21476,-2.95146 -2.36659,-3.76958 -1.47562,-0.56103 -3.64299,-0.91104 -4.81637,-0.7778 -1.17338,0.13324 -4.081,-0.12843 -6.46138,-0.5815 -3.71872,-0.70779 -4.64873,-0.52241 -6.60661,1.31692 -1.25325,1.17737 -3.87343,2.39947 -5.82261,2.71578 -2.45909,0.39905 -4.92547,1.99406 -8.05691,5.2104 -4.48123,4.60272 -8.55527,12.13529 -6.56345,12.13529 0.56122,0 0.31325,0.70714 -0.55103,1.57143 -1.88292,1.88291 -2.06265,3.53055 -0.32143,2.94656 0.6875,-0.23059 3.11623,-0.89635 5.39718,-1.47947 z m -0.89718,-5.7008 c 0.6875,-0.27741 1.8125,-0.27741 2.5,0 0.6875,0.27741 0.125,0.50439 -1.25,0.50439 -1.375,0 -1.9375,-0.22698 -1.25,-0.50439 z m 12.25,-11.33772 -4.5,-0.69961 5.25,-0.1502 c 2.93346,-0.0839 5.25,0.29105 5.25,0.84981 0,0.55 -0.3375,0.93241 -0.75,0.84981 -0.4125,-0.0826 -2.775,-0.46502 -5.25,-0.84981 z m -50.50565,72.80999 c 3.23647,-6.23197 7.74371,-17.62749 11.39515,-28.80999 5.82815,-17.84863 6.91792,-21.04262 11.25947,-33 2.64269,-7.27843 5.86365,-13.76558 7.51546,-15.13646 1.92469,-1.59736 1.63653,0.13059 -0.64611,3.87435 -2.80725,4.60418 -8.71485,22.75135 -10.05271,30.88025 -0.62294,3.78503 -1.54504,8.76863 -2.04911,11.07468 -0.50408,2.30605 -0.9165,6.46855 -0.9165,9.25 0,2.9311 -0.45066,5.05718 -1.07195,5.05718 -1.02539,0 -0.82635,-4.25018 0.72588,-15.5 0.90533,-6.56145 -1.04706,-2.88102 -4.50907,8.5 -0.78619,10.12261 -23.51068,46.77736 -11.65051,23.80999 z M 190.0591,402.1127 c -0.31922,-0.79773 -0.55618,-0.56078 -0.60416,0.60417 -0.0434,1.05416 0.19292,1.64479 0.52522,1.3125 0.33229,-0.33229 0.36781,-1.19479 0.0789,-1.91667 z m -30.68311,42.38328 c 0,-0.99232 1.41248,-4.02982 3.13884,-6.75 7.57021,-11.92818 11.90319,-24.10748 10.65027,-29.9362 -1.3125,-6.10596 -0.39653,-36.46505 1.1996,-39.75958 1.8445,-3.80717 3.10521,-3.45646 1.79735,0.5 -1.63536,4.94721 -2.22817,13.14127 -0.89092,12.31481 1.38932,-0.85865 1.42793,0.96302 0.074,3.49282 -0.59559,1.11287 -0.91227,7.1019 -0.75,14.18426 0.26882,11.73325 0.33805,12.08684 1.61699,8.25811 0.73488,-2.2 1.705,-5.575 2.15581,-7.5 2.58329,-11.03075 6.30465,-24.20749 8.19015,-29 2.64659,-6.72706 6.82891,-12.94987 8.72288,-12.97865 1.05429,-0.016 0.92948,0.54027 -0.5,2.22865 -1.04775,1.2375 -2.15506,2.475 -2.46069,2.75 -1.87757,1.68936 -5.63022,12.3492 -8.61342,24.46743 -1.89996,7.71791 -4.07199,15.83257 -4.82674,18.03257 -4.6076,13.43054 -7.97038,21.66761 -11.20317,27.44195 -2.01936,3.60693 -4.5352,8.24555 -5.59077,10.30805 -2.14234,4.18599 -2.7102,4.59368 -2.7102,1.94578 z"
             id="path3034"
             style="fill:#ffffff"
             inkscape:connector-curvature="0"
             sodipodi:nodetypes="csssssssssssssssssssssssssssscsssscccccccssssssssscscssssssssssssssscssscsssssssssscssssccccsscccccsscssscsssssssssssssssssssssssscscsssssssssssssssscccccsscsssccsscsssscsssssssssssssscsssssscsssscsssssssssccccccccsssssssssscsssssscc" />
          <g
             id="g3036"
             style="fill:#ffffff">
            <path
               d="m 189.29172,444.56157 c 0.50692,-5.02853 1.74081,-9.98953 3.32709,-13.37703 3.44388,-7.35438 6.29464,-17.71757 7.67057,-27.88432 2.47417,-18.28164 3.70547,-21.99487 10.16627,-30.65843 3.73103,-5.00309 8.48783,-8.34157 11.88543,-8.34157 0.91179,0 2.56474,-0.84495 3.67323,-1.87766 1.10849,-1.03272 2.99335,-2.18804 4.18856,-2.56739 1.19522,-0.37935 2.17313,-1.06495 2.17313,-1.52356 0,-0.77028 -5.50645,-4.55743 -9,-6.1899 -1.22652,-0.57313 -1.17732,-0.71373 0.26987,-0.7712 2.18819,-0.0869 8.41793,3.81258 11.62023,7.27364 2.05024,2.21591 3.07527,2.53523 7.20865,2.2456 2.92703,-0.20509 5.00007,0.10362 5.28095,0.78642 0.25432,0.61823 0.49625,0.67405 0.53761,0.12405 0.24729,-3.28791 -4.23048,-7.29006 -13.03094,-11.64685 -13.25764,-6.56337 -14.14725,-6.84205 -22.18342,-6.94915 l -7.20295,-0.096 5,-1.20381 c 6.06086,-1.45921 10.74599,-0.46916 21,4.4377 10.69178,5.11635 16.41846,8.89499 17.89959,11.81073 1.45805,2.87029 0.69914,13.28113 -1.00966,13.85073 -1.25275,0.41758 -0.61727,26.95035 0.74612,31.15231 1.59895,4.92793 -0.47567,8.52641 -4.45665,7.73021 -2.68252,-0.5365 -2.84858,-0.39609 -2.26788,1.91761 0.34462,1.37308 0.28051,2.50002 -0.14247,2.50431 -0.42298,0.004 -1.29601,1.14369 -1.94007,2.532 -1.28516,2.77024 -0.78257,5.35853 2.41948,12.4602 10.64656,19.85377 9.66059,25.88721 2.25154,13.2622 0,-0.55952 -0.675,-1.57751 -1.5,-2.2622 -1.2236,-1.0155 -1.5,-0.9593 -1.5,0.30498 0,0.85242 1.05596,2.38048 2.34659,3.39568 -21.71374,17.11587 -52.18577,3.23468 -55.43087,-0.4393 z m 36.8507,-0.90572 c -0.73196,-0.45238 -0.87187,-0.0728 -0.41348,1.12175 0.58569,1.52626 0.45731,1.61002 -0.83006,0.5416 -2.04766,9.98708 -5.32999,5.72343 -1.4983,-6.42423 2.50539,-7.48952 2.49629,-7.59477 -0.65656,-7.59477 -3.14572,0 -8.98547,-3.41665 -10.41947,-6.09611 -0.75643,-1.41341 0.18826,-1.06137 3.59423,1.33938 4.02588,2.8377 5.42671,3.25673 10.8874,3.25673 7.8153,0 11.56981,-1.80492 11.56981,-5.56199 0,-1.49822 -0.66741,-2.98014 -1.48314,-3.29317 -2.05344,-0.78798 -0.76082,-3.64484 1.64915,-3.64484 1.10613,0 1.67139,-0.45408 1.30442,-1.04785 -0.35619,-0.57632 -1.39524,-0.9745 -2.30902,-0.88485 -0.91378,0.0897 -2.78641,0.0827 -4.16141,-0.0155 -2.28814,-0.16341 -2.33051,-0.24639 -0.5,-0.97919 1.1,-0.44036 3.42239,-0.71157 5.16087,-0.60268 2.75099,0.1723 3.21364,-0.16155 3.56779,-2.57452 0.37729,-2.57059 0.20172,-2.73145 -2.41087,-2.20893 -3.14039,0.62808 -3.95893,-1.49449 -1.39646,-3.62115 1.16625,-0.9679 1.32478,-0.81041 0.88336,0.87755 -0.56718,2.16892 1.23471,2.93896 1.93826,0.82832 0.29799,-0.89398 1.16733,-0.73236 3.19023,0.5931 3.97663,2.60558 5.03932,1.06614 3.67037,-5.31703 -0.60695,-2.83012 -1.16042,-7.48603 -1.22992,-10.34645 l -0.12637,-5.20078 -1.04999,3.75 c -1.15305,4.11802 -2.59466,4.85839 -3.40752,1.75 -0.71603,-2.73808 -1.94479,-2.51057 -2.70039,0.5 -0.72388,2.88416 -3.09445,3.23537 -6.36685,0.9433 -3.36561,-2.35736 -2.71501,-3.30908 2.75845,-4.03516 2.73952,-0.36341 4.73796,-1.05391 4.44098,-1.53444 -0.29699,-0.48054 0.49908,-0.90222 1.76904,-0.93709 2.29824,-0.0631 2.29735,-0.0682 -0.19098,-1.083 -1.375,-0.5608 -4.70721,-0.81663 -7.40492,-0.56853 -4.51163,0.41494 -4.71208,0.34425 -2.5,-0.88155 3.06681,-1.69944 13.07912,-1.80304 14.83716,-0.15353 1.09929,1.03144 1.22169,0.65988 0.7,-2.125 -0.34773,-1.85625 -0.63224,-4.66875 -0.63224,-6.25 0,-2.60965 -0.31758,-2.875 -3.44098,-2.875 -1.89254,0 -3.71662,-0.44598 -4.0535,-0.99107 -0.38642,-0.62524 -1.95746,-0.42911 -4.25615,0.53134 -2.004,0.83733 -4.21774,1.30211 -4.91943,1.03285 -0.70168,-0.26926 -2.52547,0.56197 -4.05286,1.84719 -1.52739,1.28521 -3.67708,2.51226 -4.77708,2.72678 -1.52419,0.29723 -1.92309,1.04293 -1.67673,3.13445 0.49823,4.22984 -1.58972,9.29102 -4.3522,10.54969 -1.6939,0.77179 -2.47107,1.9332 -2.47107,3.69279 0,3.63611 -4.29152,7.6919 -7.33162,6.92888 -2.23092,-0.55992 -2.40701,-0.27543 -2.925,4.72566 -0.54754,5.28649 -3.71002,16.57816 -6.25159,22.32144 -4.74865,42.64114 59.48925,38.93794 30.27464,13.85561 z m 8.9669,-46.47974 c 0.67834,-0.68342 1.48524,-0.99067 1.79313,-0.68278 0.30789,0.30789 -0.24711,0.86705 -1.23333,1.24258 -1.4252,0.54268 -1.54006,0.42782 -0.5598,-0.5598 z m -2.41215,-8.58657 c 0.81894,-1.32507 5.67882,-2.3098 5.67882,-1.15067 0,0.47373 -0.6382,0.86133 -1.41821,0.86133 -0.78002,0 -2.20384,0.30147 -3.16405,0.66994 -1.09894,0.4217 -1.50525,0.28068 -1.09656,-0.3806 z m -1.19147,55.30567 c -2.10302,-1.88112 -2.1311,-1.87798 -2.24082,0.25 4.68549,23.33189 7.99412,5.11868 2.24082,-0.25 z m 9.74877,-1.80573 c -0.67865,-1.25911 -1.27989,-3.26939 -1.33607,-4.4673 -0.0562,-1.19791 -0.94595,-3.11041 -1.97727,-4.25 -1.30166,-1.43832 -1.47092,-2.07198 -0.55346,-2.07198 0.72691,0 1.08606,-0.23559 0.79811,-0.52354 -0.88855,-0.88855 -3.80979,0.66304 -3.80979,2.02354 0,0.70731 0.64556,1.53375 1.43459,1.83652 0.78902,0.30278 1.97509,1.58843 2.63571,2.85699 1.1903,2.28569 1.17687,2.28416 -1.4901,-0.16998 -2.34347,-2.15646 -2.6014,-2.22107 -1.99598,-0.5 0.38239,1.08706 1.22868,2.42647 1.88066,2.97647 2.90686,1.5184 5.87916,11.14665 2.53431,4.99849 -0.73543,-1.37417 -1.74861,-2.49849 -2.2515,-2.49849 2.56173,11.3982 10.34777,11.66474 4.13079,-0.21072 z m -6.44792,1.96072 c -0.38733,-1.2375 -1.76765,-3.52203 -3.06739,-5.07673 -2.15843,-2.58181 -2.36317,-2.64604 -2.36317,-0.74134 0.13988,2.35251 7.15224,11.41675 5.43056,5.81807 z m -7.82639,-4.47917 c -1.01652,-1.01651 -1.85525,0.51389 -1.02122,1.86338 0.63003,1.01942 0.86558,1.02021 1.2043,0.004 0.2316,-0.69479 0.14921,-1.53512 -0.18308,-1.86742 z m 5.01573,-5.0795 c -2.37915,-2.37915 -3.02503,-0.73928 -0.95384,2.42176 1.54333,2.35542 1.88004,2.5053 2.17599,0.96857 0.19257,-0.99993 -0.3574,-2.52558 -1.22215,-3.39033 z m 10.77004,1.05867 c -0.35648,-1.5125 -1.0719,-3.2 -1.58981,-3.75 -0.8843,-0.93909 -0.12487,3.92826 0.89715,5.75 0.93196,1.66122 1.30305,0.58973 0.69266,-2 z m -9.78577,-3.97917 c -1.01652,-1.01651 -1.85525,0.51389 -1.02122,1.86338 0.63003,1.01942 0.86558,1.02021 1.2043,0.004 0.2316,-0.69479 0.14921,-1.53513 -0.18308,-1.86742 z M 208.15348,399.7435 c 1.22238,-0.85619 2.22251,-2.50963 2.22251,-3.67432 l 0,-2.11761 -2.31445,2.17432 c -3.3064,3.10619 -4.06635,2.69045 -1.05233,-0.57569 1.39575,-1.5125 3.92907,-3.425 5.6296,-4.25 5.16156,-2.50408 4.51068,-3.82358 -1.42335,-2.88554 -7.07286,1.11807 -7.27953,0.36005 -0.44365,-1.6272 3.41568,-0.99296 6.03034,-2.41504 6.68318,-3.63487 0.99545,-1.86001 0.90552,-1.91616 -1.25331,-0.78257 -2.3033,1.20944 -2.30776,1.201 -0.46344,-0.87709 1.83822,-2.07121 1.82532,-2.10647 -1,-2.73298 -5.06555,-1.12327 -4.96587,-1.3004 0.77697,-1.3808 4.13429,-0.0579 6.26923,-0.61876 8,-2.1017 l 2.36078,-2.02275 -4,0.65541 c -2.2,0.36048 -3.65317,0.28639 -3.22928,-0.16464 0.4239,-0.45103 4.0239,-1.07322 8,-1.38266 6.07893,-0.47308 7.20718,-0.84108 7.09039,-2.31261 -0.16702,-2.10446 1.48065,-2.24956 4.16826,-0.36709 1.33487,0.93498 3.26941,1.17355 5.97251,0.73654 3.2478,-0.52507 4.06286,-1.10251 4.34309,-3.07689 0.46138,-3.25068 -2.19345,-5.04256 -7.471,-5.04256 -2.33407,0 -5.35033,-0.42071 -6.7028,-0.93492 -1.96571,-0.74736 -3.1179,-0.44883 -5.74326,1.48811 -1.80633,1.33267 -4.84071,2.71503 -6.74307,3.07191 -2.08762,0.39164 -4.97236,2.16242 -7.27667,4.46673 -4.32952,4.32952 -8.5702,12.18749 -6.88104,12.75055 0.60832,0.20277 0.30535,0.92523 -0.69461,1.65643 -1.24338,0.90918 -1.78231,2.67149 -1.803,5.89581 -0.0162,2.52945 -0.36702,4.60044 -0.77952,4.60219 -0.92842,0.004 -0.99742,4.42244 -0.0833,5.33652 0.98036,0.98037 1.6463,0.83618 4.11082,-0.89003 z m 13.47251,-31.13263 c 0.9625,-0.25152 2.5375,-0.25152 3.5,0 0.9625,0.25153 0.175,0.45733 -1.75,0.45733 -1.925,0 -2.7125,-0.2058 -1.75,-0.45733 z m 15.25,-1.31067 c -0.33992,-0.55 -0.14148,-1 0.44098,-1 0.58246,0 1.05902,0.45 1.05902,1 0,0.55 -0.19844,1 -0.44098,1 -0.24254,0 -0.7191,-0.45 -1.05902,-1 z m -0.5,26 c 0,-0.55 -0.70156,-1 -1.55902,-1 -0.85746,0 -1.2809,0.45 -0.94098,1 0.33992,0.55 1.04148,1 1.55902,1 0.51754,0 0.94098,-0.45 0.94098,-1 z m -76.98188,51.80902 c 0.01,-0.71996 1.43196,-3.78402 3.16001,-6.80902 5.14248,-9.00211 9.82187,-18.9226 9.82187,-20.82277 0,-0.97748 0.39431,-2.20473 0.87624,-2.72723 0.75926,-0.82317 2.94473,-7.29966 6.05717,-17.95 0.4822,-1.65 1.41899,-5.475 2.08177,-8.5 1.81504,-8.2841 4.71525,-16.89273 7.66001,-22.73708 2.58319,-5.12676 6.32481,-9.58747 6.32481,-7.54035 0,0.5679 -0.68656,1.60234 -1.5257,2.29875 -2.8501,2.36539 -7.33234,13.79205 -10.45604,26.65584 -5.25231,21.62966 -12.59102,41.07593 -19.23446,50.96787 -1.53109,2.27976 -2.7838,4.8407 -2.7838,5.69098 -0.29809,1.70194 -1.1685,2.78228 -1.98188,1.47301 z m 12.98188,-0.18418 c 0,-0.20633 1.62132,-3.91883 3.60293,-8.25 1.98162,-4.33116 5.82182,-14.84984 8.5338,-23.37484 8.82326,-27.73565 14.55492,-42.78147 17.90453,-47 1.579,-1.98861 1.84062,-2.09088 1.27895,-0.5 -0.38836,1.1 -1.50753,3.36724 -2.48704,5.03832 -2.47052,4.21477 -7.43323,19.64486 -8.83239,27.46168 -2.39362,13.37274 -2.95662,15.14623 -2.53963,8 0.20861,-3.575 0.0735,-5.375 -0.30025,-4 -3.88288,14.28507 -15.01274,43 -16.66672,43 -0.2718,0 -0.49418,-0.16882 -0.49418,-0.37516 z m 16.30987,-25.12484 c 0.006,-3.3 0.1923,-4.52944 0.41486,-2.73209 0.22256,1.79735 0.21797,4.49735 -0.0102,6 -0.22818,1.50265 -0.41027,0.0321 -0.40466,-3.26791 z m -15.23397,-14 c -0.17042,-2.75 -0.35697,-11.525 -0.41454,-19.5 -0.0857,-11.86661 0.20072,-15.04484 1.57694,-17.5 1.70666,-3.04466 2.52002,-1.78545 0.85558,1.32458 -1.54848,2.89336 -1.66351,10.71919 -0.15262,10.38283 0.95972,-0.21366 1.09839,0.3259 0.51402,2 -0.44014,1.26093 -1.08584,8.14259 -1.43488,15.29259 -0.34905,7.15 -0.77407,10.75 -0.9445,8 z m -7.82833,-36 c 1.65081,-3.92001 4.94037,-11.2591 5.60282,-12.5 0.44041,-0.825 4.85737,-4.28722 9.81545,-7.69382 8.73552,-6.00202 9.25964,-6.21292 16.92442,-6.8103 9.43372,-0.73524 8.18873,0.91009 -1.40849,1.86142 -5.60326,0.55543 -7.30066,1.301 -15,6.5887 -7.09099,4.86989 -9.00644,6.74953 -10.45369,10.2582 -0.97456,2.36269 -2.70111,5.4208 -3.83678,6.7958 -1.13567,1.375 -1.87535,2.05 -1.64373,1.5 z"
               id="path3032"
               style="fill:#ffffff"
               inkscape:connector-curvature="0"
               sodipodi:nodetypes="csssssssssssscsscssssssscsccsscccsccsssssssscssssssssssscssssssscssssssssssssssssccssssssssscccccsssscssscccccscccscccsssssssscsccccscssssssssssscsssssssssssssscccccsssssssssssssscssssssscssccssssssssssscsscssssssssscsssssss" />
            <path
               d="m 193.64273,429.39661 c 0.95329,-1.872 1.73326,-4.1445 1.73326,-5.05 0,-0.9055 0.37755,-2.07386 0.839,-2.59636 0.46146,-0.5225 1.34796,-3.425 1.97002,-6.45 2.75895,-13.41652 3.2197,-15.84418 4.09815,-21.59272 1.58591,-10.37816 2.97152,-14.04774 7.65885,-20.28326 4.61897,-6.14459 8.89271,-9.12402 13.08762,-9.12402 1.2905,0 2.34636,-0.37914 2.34636,-0.84253 0,-0.46339 1.575,-1.69072 3.5,-2.7274 1.925,-1.03668 3.5,-2.17135 3.5,-2.52147 0,-0.74094 -6.79562,-5.43632 -9,-6.21848 -1.10229,-0.39111 -0.99474,-0.55316 0.40561,-0.61117 2.00654,-0.0831 7.51787,3.65025 11.39495,7.71894 1.77463,1.86234 3.03199,2.30512 5.5,1.93681 1.75969,-0.2626 4.21194,-0.0965 5.44944,0.36917 1.58651,0.59697 2.25,0.47721 2.25,-0.40611 0,-2.73332 -3.37142,-5.73795 -11.24997,-10.02603 -11.77699,-6.40989 -19.09555,-8.78738 -25.22751,-8.19534 l -5.02252,0.48492 4,-1.04295 c 4.86205,-1.26771 10.21608,-0.54219 16.37451,2.21891 2.54402,1.1406 6.20049,2.78379 8.12549,3.65154 4.52321,2.03896 12.14838,7.05299 13.75,9.0415 1.67966,2.0854 1.63406,12.60606 -0.0607,14.01262 -1.58299,1.31377 -1.27776,26.25783 0.39744,32.47905 1.31973,4.9011 -0.85014,8.02648 -4.87178,7.01711 -2.30164,-0.57767 -2.45065,-0.41444 -1.8406,2.01618 0.36508,1.4546 0.31771,2.64824 -0.10527,2.65253 -0.42298,0.004 -1.29304,1.1374 -1.93347,2.51802 -1.35705,2.92548 -0.37636,7.44214 3.14274,14.47418 3.07773,6.15008 8.74754,21.82241 8.33859,23.04928 -0.18299,0.54896 -1.4045,-1.70027 -2.71447,-4.99829 -1.30997,-3.29802 -2.72091,-5.78679 -3.13543,-5.5306 -0.41451,0.25618 -1.03524,-0.6561 -1.37939,-2.0273 -0.63894,-2.54573 -2.61339,-3.50606 -2.55582,-1.24309 0.0434,1.70461 2.44697,4.75 3.74899,4.75 1.18375,0 2.747,5.80555 1.81437,6.73817 -0.32738,0.32734 -0.5952,-0.32474 -0.5952,-1.44906 0,-1.12432 -0.675,-2.60442 -1.5,-3.28911 -3.03354,-2.51762 -1.60292,2.5777 1.5,5.34242 1.76483,1.57247 2.95896,3.59621 2.90032,4.91529 -0.0966,2.17422 -0.12026,2.16865 -0.77758,-0.18357 -0.73881,-2.6438 -3.12274,-4.079 -3.12274,-1.87998 2.9679,1.74069 -3.20299,-12.92472 -0.55615,2.37489 -0.37213,-2.34153 -1.84553,-4.83407 -4.22166,-7.14174 -2.8957,-2.81226 -3.35735,-3.72574 -2.23385,-4.4201 0.77889,-0.48138 1.77515,-0.65338 2.21391,-0.38221 0.43876,0.27117 0.79775,-0.43223 0.79775,-1.5631 0,-2.23903 -6.74426,-10.33799 -7.97524,-9.5772 -0.41661,0.25747 -1.60511,-0.526 -2.64111,-1.74105 -1.5672,-1.83805 -1.58966,-1.98151 -0.13365,-0.85397 1.50445,1.16505 1.75,1.12755 1.75,-0.26724 0,-1.7144 -2.49711,-2.24516 -3.43364,-0.72981 -0.30342,0.49094 -0.61293,3.60264 -0.68781,6.91489 -0.13004,5.75262 0.0599,6.24989 4.24266,11.10604 4.34905,5.04925 6.59799,5.35921 3.3929,0.46763 -0.92065,-1.40509 -1.44728,-2.78136 -1.17027,-3.05836 0.27701,-0.27701 -0.11296,-2.25129 -0.86658,-4.3873 -1.57294,-4.45817 -0.58572,-5.81785 2.08303,-2.86891 1.61659,1.78632 1.63202,1.94441 0.13364,1.36943 -1.97641,-0.75843 -2.24044,0.61744 -0.46012,2.39776 0.67859,0.67859 1.30098,2.56964 1.3831,4.20234 0.0821,1.6327 1.4201,4.65499 2.9733,6.7162 1.55321,2.06121 2.05582,3.13005 1.1169,2.37521 -1.46677,-1.17923 -1.70711,-1.15234 -1.70711,0.19098 0,0.85988 0.37545,1.79547 0.83434,2.07907 0.94118,0.58169 -2.02806,5.98829 -2.93766,5.98829 -0.59907,0 -3.89668,-7.8336 -3.89668,-9.08441 0,-0.37953 1.11005,0.81454 2.46678,2.65348 1.76414,1.53663 1.56699,4.06712 2.41711,5.47327 0.50408,0.31154 0.82911,-0.6961 0.72227,-2.23919 -0.24108,-3.48228 -11.60616,-18.73552 -11.60616,-15.57681 0,0.40165 0.65916,1.45864 1.4648,2.34887 1.30289,1.43968 1.24053,1.63548 -0.56423,1.77143 -1.19095,0.0897 -1.84987,-0.3398 -1.59529,-1.03985 0.23856,-0.65598 -0.29504,-2.05754 -1.18577,-3.11458 -0.89073,-1.05705 -1.05701,-1.59299 -0.36951,-1.19099 0.76167,0.44537 1.25,0.16366 1.25,-0.72111 0,-0.79862 -0.69837,-1.72002 -1.55194,-2.04757 -0.85356,-0.32754 -1.30076,-0.18912 -0.99377,0.3076 0.307,0.49673 0.15595,1.05407 -0.33566,1.23855 -0.4916,0.18448 -1.16622,2.31972 -1.49914,4.74499 -0.33293,2.42527 -0.83351,4.63777 -1.1124,4.91667 -1.12838,1.12838 -0.38133,-7.68349 1.08738,-12.82625 2.93703,-10.28412 2.93912,-10 -0.0736,-10 -3.40759,0 -7.45145,-2.37517 -9.9334,-5.8344 l -1.91252,-2.6656 2.91252,2.61393 c 5.46267,4.90264 14.58243,6.32287 21.0114,3.27213 3.86623,-1.83465 4.66576,-5.70559 1.65113,-7.99401 -1.16236,-0.88236 -1.31044,-1.33912 -0.44098,-1.36025 0.71996,-0.0175 1.0123,-0.5119 0.64964,-1.09868 -0.36745,-0.59455 -0.0485,-0.92659 0.72054,-0.75 0.75895,0.17428 1.49401,-0.13312 1.63347,-0.68312 0.13946,-0.55 -1.44884,-1.22645 -3.52955,-1.50322 -4.39118,-0.58411 -2.4516,-1.82615 2.382,-1.52537 2.67792,0.16664 3.24109,-0.20043 3.65863,-2.38468 0.27143,-1.4199 -0.0279,-2.91339 -0.66512,-3.31887 -0.71441,-0.45458 -0.37265,-0.7431 0.89137,-0.75255 1.1275,-0.008 2.59,0.52469 3.25,1.18469 0.85576,0.85577 1.50836,0.89164 2.27493,0.12507 0.76657,-0.76657 0.72926,-2.83193 -0.13007,-7.19983 -0.66275,-3.36869 -0.97767,-8.1418 -0.69982,-10.6069 0.27786,-2.46511 0.11139,-4.23862 -0.36992,-3.94116 -0.48132,0.29747 -0.87512,0.935 -0.87512,1.41674 0,0.48173 -0.49634,2.14268 -1.10298,3.69098 -1.0918,2.78655 -1.11176,2.79228 -1.96778,0.5651 -1.11955,-2.91282 -2.73449,-2.87411 -3.47677,0.0833 -0.32209,1.28333 -1.20636,2.33333 -1.96503,2.33333 -0.96227,0 -1.11695,-0.4904 -0.51151,-1.62168 0.67929,-1.26927 0.34958,-1.66459 -1.51716,-1.81909 -1.88274,-0.15582 -2.24809,0.16818 -1.73469,1.53836 0.58527,1.56196 0.46887,1.58789 -1.16259,0.25895 -1.71383,-1.39605 -1.65572,-1.54396 1.06277,-2.7049 1.58166,-0.67545 4.1398,-1.24839 5.68476,-1.2732 1.60916,-0.0258 2.54502,-0.47225 2.19098,-1.0451 -0.33992,-0.55 0.11008,-1 1,-1 0.96841,0 1.33156,0.46352 0.90451,1.15451 -0.46162,0.74691 -0.27206,0.88166 0.53694,0.38167 0.96925,-0.59902 0.8992,-1.12411 -0.31147,-2.33477 -1.08485,-1.08485 -3.17592,-1.50079 -6.84596,-1.36174 -3.8179,0.14465 -4.86783,-0.0785 -3.78402,-0.80442 2.14075,-1.43377 12.34328,-1.27649 13.93024,0.21475 1.09861,1.03235 1.22241,0.55352 0.711,-2.75 -0.34057,-2.2 -0.62418,-5.0125 -0.63023,-6.25 -0.009,-1.74585 -0.58591,-2.25 -2.57675,-2.25 -1.41116,0 -3.4321,-0.46366 -4.49097,-1.03035 -1.42435,-0.76229 -2.73797,-0.61007 -5.04916,0.5851 -1.71816,0.88849 -3.41723,1.23965 -3.7757,0.78035 -0.35847,-0.45931 -0.4726,-0.73844 -0.25361,-0.62029 1.15565,0.62352 4.21455,-2.06559 3.74412,-3.2915 -0.71304,-1.85817 -0.31059,-1.80326 4.09667,0.55889 2.7582,1.47831 3.8874,1.67633 4.442,0.77896 0.409,-0.66178 1.05228,-0.89461 1.4295,-0.51739 1.15856,1.15856 4.42289,-1.20112 4.42289,-3.19717 0,-4.33317 -0.99636,-5.0466 -7.04797,-5.0466 -3.2087,0 -6.11211,-0.45 -6.45203,-1 -1.01009,-1.63435 -4.06253,-1.14088 -5.96819,0.96485 -0.97799,1.08067 -4.17171,2.66067 -7.09715,3.51112 -4.1051,1.19339 -6.10078,2.51366 -8.74463,5.78515 -5.26137,6.5104 -8.25838,13.48818 -9.33702,21.73888 -0.32357,2.475 -0.74453,4.67167 -0.93547,4.88148 -0.19095,0.20982 0.10283,1.22232 0.65283,2.25 0.77469,1.44753 0.65411,1.86852 -0.53519,1.86852 -1.19311,0 -1.53518,1.21864 -1.53518,5.4691 0,5.20067 -2.91989,16.00448 -6.57186,24.31635 -4.12602,21.03376 -18.00344,31.1923 -1.1614,-2.68906 z m 49.28882,20.34808 c -0.94345,-1.43988 -1.94037,-2.39297 -2.21537,-2.11797 -0.275,0.275 0.27192,1.67809 1.21537,3.11797 0.94344,1.43989 1.94036,2.39298 2.21536,2.11798 0.275,-0.275 -0.27192,-1.67809 -1.21536,-3.11798 z M 226.48849,439.0127 c -0.81667,-0.81667 -1.1125,-0.70476 -1.1125,0.42083 0,1.98786 1.3447,3.33256 1.84167,1.84167 0.21083,-0.6325 -0.1173,-1.65062 -0.72917,-2.2625 z m 11.728,-5.46296 c -1.28727,-1.41462 -1.778,-2.24792 -1.0905,-1.85177 0.69712,0.40169 1.25,0.20454 1.25,-0.44574 0,-0.6524 -0.69675,-0.89864 -1.58179,-0.55902 -0.86998,0.33385 -1.76998,0.60699 -2,0.60699 -1.28244,0 -0.0573,2.76833 2.33179,5.26882 2.24493,2.34962 2.81254,2.57287 3.0905,1.2155 0.18728,-0.91451 -0.71272,-2.82016 -2,-4.23478 z m 5.30179,3.09784 c -0.54796,-1.01606 -1.32378,-2.74738 -1.72405,-3.84738 -0.66639,-1.83134 -0.76385,-1.84828 -1.15579,-0.20083 -0.23542,0.98954 0.32018,2.94109 1.23466,4.33676 1.85677,2.8338 3.20183,2.59788 1.64518,-0.28855 z m -15.14229,-0.28836 c 0,-0.51754 -0.45,-1.2191 -1,-1.55902 -0.55,-0.33992 -1,0.0835 -1,0.94098 0,0.85746 0.45,1.55902 1,1.55902 0.55,0 1,-0.42344 1,-0.94098 z m 1.625,19.81598 c -0.83365,-4.16825 -0.0258,-4.97614 0.875,-0.875 0.37968,1.72866 0.48187,3.35146 0.22711,3.60623 -0.25477,0.25477 -0.75072,-0.97429 -1.10211,-2.73123 z m -59.625,-7.875 c 0.5887,-1.1 1.29537,-2 1.57037,-2 0.275,0 0.0183,0.9 -0.57037,2 -0.5887,1.1 -1.29537,2 -1.57037,2 -0.275,0 -0.0183,-0.9 0.57037,-2 z m -10.97428,-2.84519 c -0.0334,-1.74796 5.6634,-12.21329 7.7052,-14.15481 1.01738,-0.96741 0.84217,-0.25729 -0.49346,2 -1.13902,1.925 -3.22183,5.75 -4.62848,8.5 -1.40664,2.75 -2.56911,4.39466 -2.58325,3.65481 z m 71.89859,-1.90481 -2.42431,-2.75 2.75,2.42431 c 2.57029,2.26589 3.20859,3.07569 2.42431,3.07569 -0.17912,0 -1.41662,-1.2375 -2.75,-2.75 z m -58.92431,1.5718 c 0,-0.34277 1.8,-4.48315 4,-9.20086 2.2,-4.71771 4,-9.23583 4,-10.04028 0,-0.80444 0.45,-1.74074 1,-2.08066 1.71596,-1.06052 1.1231,1.12211 -2.63518,9.70156 -3.33608,7.61566 -6.36482,13.14522 -6.36482,11.62024 z m -10.81088,-22.8218 c -0.0225,-1.925 0.31945,-5.525 0.75984,-8 l 0.80071,-4.5 0.0675,4 c 0.0371,2.2 -0.30478,5.8 -0.75984,8 -0.81389,3.69066 -0.81505,5.05426 -0.86827,0.5 z m 8.81088,1.94567 c 0,-0.24988 1.15529,-3.60239 2.5673,-7.45 4.02048,-10.95543 5.06542,-14.36044 7.36386,-23.99567 2.85216,-11.95642 5.78465,-20.79437 9.14451,-27.55983 2.74448,-5.5263 5.92433,-9.31713 5.92433,-7.06261 0,0.61734 -0.42542,1.12244 -0.94537,1.12244 -1.99131,0 -8.16847,15.03433 -11.09351,27 -3.47658,14.2219 -4.71906,18.45568 -8.5106,29 -2.26828,6.30813 -4.45052,10.69449 -4.45052,8.94567 z M 188.662,418.8002 c 0.008,-2.75 0.20172,-3.75631 0.43157,-2.23625 0.22986,1.52006 0.22371,3.77006 -0.0136,5 -0.23741,1.22994 -0.42547,-0.0137 -0.41797,-2.76375 z m -6.25538,1.5 c 0,-0.825 0.43622,-2.175 0.96937,-3 0.86167,-1.33333 0.96938,-1.33333 0.96938,0 0,0.825 -0.43622,2.175 -0.96938,3 -0.86166,1.33333 -0.96937,1.33333 -0.96937,0 z m 2.05497,-5.5 c 0.10413,-1.89422 1.77076,-5.08385 1.8288,-3.5 0.0302,0.825 -0.38124,2.175 -0.9144,3 -0.53315,0.825 -0.94464,1.05 -0.9144,0.5 z m 5.46615,-11 c 0.25551,-8.02415 0.96027,-11.3582 3.72623,-17.62808 0.81814,-1.85456 2.04356,-4.94692 2.72315,-6.87192 2.00915,-5.6911 4.72163,-11.35974 6.45982,-13.5 0.89336,-1.1 0.45925,0.3887 -0.96468,3.30822 -3.20089,6.56286 -8.07727,20.75228 -8.99155,26.16382 -0.37507,2.22005 -1.06542,3.79946 -1.5341,3.5098 -0.46868,-0.28966 -0.61265,0.94924 -0.31992,2.75311 0.29273,1.80387 0.1079,4.85145 -0.41073,6.77241 -0.76643,2.83877 -0.89528,1.99493 -0.68822,-4.50736 z m -16.16639,-5.5 c 0,-6.875 0.15977,-9.6875 0.35504,-6.25 0.19527,3.4375 0.19527,9.0625 0,12.5 -0.19527,3.4375 -0.35504,0.625 -0.35504,-6.25 z m 63.05533,9.90404 c -0.37254,-0.60278 -0.0616,-1.71171 0.69099,-2.46429 1.15776,-1.15776 1.36832,-0.98912 1.36832,1.09596 0,2.59614 -0.92189,3.2087 -2.05931,1.36833 z m -73.11327,-14.4796 c -0.21962,-17.68424 1.33835,-19.26801 1.24912,-3.2382 -0.0636,9.17744 -0.33617,16.90673 -0.60565,17.1762 -0.26948,0.26948 -0.55904,-6.00262 -0.64347,-13.938 z m 23.65918,11.6223 c 0.52343,-1.8251 1.25388,-3.59475 1.62322,-3.93255 1.01236,-0.92591 -0.61133,5.24261 -1.66313,6.31836 -0.5261,0.53808 -0.50922,-0.47112 0.0399,-2.38581 z m 18.55401,-2.98103 c -0.28789,-0.46582 0.53764,-1.54218 1.8345,-2.39192 1.29687,-0.84974 2.60088,-2.47397 2.8978,-3.60939 0.60415,-2.3103 -0.2647,-2.67261 -2.07291,-0.8644 -0.93333,0.93333 -1.2,0.93045 -1.2,-0.013 0,-0.66715 2.025,-2.19682 4.5,-3.39927 4.91672,-2.38872 6.21371,-5.18164 2,-4.30678 -1.375,0.28547 -3.6627,0.76208 -5.08379,1.05913 -1.51099,0.31584 -2.33922,0.14436 -1.99476,-0.41299 0.32397,-0.52419 2.38915,-1.2572 4.5893,-1.62891 2.36488,-0.39954 4.60186,-1.53471 5.47176,-2.77668 1.81912,-2.59715 1.16935,-3.47433 -1.20834,-1.63124 -1.51944,1.17782 -1.5031,1.0574 0.11379,-0.83868 1.86595,-2.18814 1.86011,-2.2251 -0.5,-3.16938 -2.15817,-0.86349 -2.02077,-0.96153 1.42778,-1.01882 2.09866,-0.0349 4.7247,-0.54984 5.83565,-1.1444 1.11095,-0.59456 2.27445,-0.82647 2.58557,-0.51535 0.31112,0.31111 -0.93273,1.1957 -2.76412,1.96574 -3.06854,1.29022 -3.34578,1.77945 -3.53354,6.23534 -0.17118,4.06244 -0.70207,5.25129 -3.32152,7.4381 -1.71478,1.43157 -3.11778,3.3734 -3.11778,4.3152 0,3.58208 -5.11096,8.88951 -6.45939,6.7077 z m 28.19272,-14.1898 c 0.67834,-0.68342 1.48524,-0.99067 1.79313,-0.68278 0.30789,0.30789 -0.24711,0.86705 -1.23333,1.24258 -1.4252,0.54268 -1.54006,0.42782 -0.5598,-0.5598 z m -60.23333,-4.87591 c 0.33992,-0.55 0.81648,-1 1.05902,-1 0.24254,0 0.44098,0.45 0.44098,1 0,0.55 -0.47656,1 -1.05901,1 -0.58246,0 -0.78091,-0.45 -0.44099,-1 z m -1.37991,-4.07186 c -0.0661,-1.96452 0.60552,-5.70141 1.49238,-8.3042 1.83438,-5.38361 2.78482,-5.76985 1.41026,-0.57309 -0.50178,1.89703 -1.33312,5.47415 -1.84743,7.94915 -0.92819,4.46669 -0.93601,4.47356 -1.05521,0.92814 z m 49.19523,-6.14418 c 1.62277,-1.03191 5.44721,-0.97721 6.10512,0.0873 0.29617,0.4792 -1.22288,0.82509 -3.37565,0.76864 -2.17156,-0.0569 -3.38672,-0.43802 -2.72947,-0.85596 z m -56.13963,-3.28396 c 0.27299,-0.55 1.925,-4.01923 3.67113,-7.70939 3.08634,-6.52247 4.07892,-7.51589 13.27941,-13.29061 0.87628,-0.55 2.84799,-1.88292 4.38158,-2.96204 1.97049,-1.38654 4.72477,-2.02872 9.39027,-2.1894 l 6.60192,-0.22737 -6.20902,0.87431 c -4.73355,0.66655 -7.63151,1.84032 -12.19513,4.93941 -3.29236,2.2358 -6.23066,4.06509 -6.52955,4.06509 -1.47067,0 -4.98613,3.93156 -6.70625,7.5 -2.4364,5.0544 -4.33462,8.32955 -5.37142,9.26771 -0.4451,0.40276 -0.58593,0.28229 -0.31294,-0.26771 z"
               id="path3030"
               style="fill:#ffffff"
               inkscape:connector-curvature="0"
               sodipodi:nodetypes="csssssssssscsscssscsssssssscsssssscscssscsccsssscssssssscsssscssscssccssscsssssssscssscsssscsssssccssssssssssssssscsssssscsscsssscsssssssssssssssccssssssssssssssssssssssssssssscscscsccsssccscssssssssscscccccssssssssscsccsssssscsssssssssssssssssssscccccssccsssssssssssssscscsssssssssssssscsssccscccssssscssssss" />
            <path
               d="m 200.85201,402.45802 c 2.26754,-14.24407 3.60112,-20.35238 5.06954,-23.22048 1.69636,-3.3133 10.34329,-12.93734 11.62383,-12.93734 0.54124,0 -0.44229,1.20019 -2.1856,2.6671 -1.74332,1.4669 -4.22431,4.33775 -5.51331,6.37966 -4.61422,7.30939 -8.1767,22.38351 -6.08844,25.76237 0.44909,0.72665 0.12826,1.19087 -0.82302,1.19087 -1.22233,0 -1.55902,1.18326 -1.55902,5.47895 -23.57656,60.23199 2.54695,21.50955 -0.52398,-5.32113 z m 36.06386,47.9193 c -0.80306,-1.55295 -1.24716,-3.03651 -0.98687,-3.2968 0.26028,-0.26028 -0.20364,-2.09326 -1.03095,-4.07328 -1.76785,-4.23105 -0.59446,-5.60412 2.09429,-2.45069 1.5672,1.83805 1.58966,1.98151 0.13365,0.85397 -2.53236,-1.96107 -2.28706,0.32671 0.44667,4.16587 1.20816,1.69672 1.60995,2.72233 0.89286,2.27914 -3.53087,28.90638 6.0656,17.8102 -1.54965,2.52179 z m 2.626,-10.94678 c -0.96808,-0.89669 -1.17643,-1.23774 -0.46301,-0.7579 2.24002,1.50663 1.50604,-2.51367 -0.95287,-5.21924 -1.2375,-1.36164 -1.6875,-2.15158 -1,-1.75543 0.6875,0.39614 1.25,0.24371 1.25,-0.33875 0,-0.58246 -0.95246,-1.05902 -2.11658,-1.05902 -1.72379,0 -2.02704,0.46837 -1.63411,2.52387 0.6488,3.39396 -0.56965,3.9126 -2.86566,1.21978 -1.5672,-1.83805 -1.58966,-1.98151 -0.13365,-0.85397 1.50445,1.16505 1.75,1.12756 1.75,-0.26724 0,-1.69797 -2.49345,-2.25107 -3.41634,-0.75781 -0.2939,0.47555 -0.82126,3.30565 -1.17191,6.28911 -0.581,4.94339 -0.3879,5.73141 2.17736,8.88537 2.7695,3.40506 2.77251,3.4229 0.18693,1.10612 -1.44539,-1.29512 -3.03212,-2.105 -3.52607,-1.79972 -0.49395,0.30528 -0.86476,-0.38953 -0.82403,-1.54402 0.0407,-1.15449 -0.4618,-2.28574 -1.11674,-2.51388 -2.77861,1.68913 -3.95201,14.14763 -4.17302,8.51118 -0.0749,-2.03567 0.5837,-6.31067 1.46356,-9.5 2.90293,-10.52265 2.89841,-10.29879 0.20797,-10.29879 -1.334,0 -3.29896,-0.71174 -4.36658,-1.58164 -1.9131,-1.55879 -1.91224,-1.57058 0.0589,-0.81616 4.0635,1.55526 12.14861,1.57146 15.83369,0.0317 3.08588,-1.28937 3.66628,-2.01487 3.66628,-4.5829 0,-1.67807 -0.45,-3.05103 -1,-3.05103 -1.85347,0 -1.01861,-2.18237 1.04089,-2.72094 2.9997,-0.78444 1.81265,-2.68641 -2.12038,-3.39742 -3.95271,-0.71457 -2.98069,-1.14466 2.07949,-0.92011 3.19887,0.14194 3.50288,-0.0863 3.53346,-2.65311 0.0184,-1.54463 -0.4316,-3.13903 -1,-3.54311 -0.5684,-0.40407 -0.021,-0.74158 1.21654,-0.75 1.2375,-0.008 2.25,0.43469 2.25,0.98469 0,0.55 0.93238,1 2.07196,1 1.95101,0 2.02397,-0.33563 1.25,-5.75 -0.45208,-3.1625 -0.6844,-9.35 -0.51628,-13.75 0.16812,-4.4 0.0281,-9.9125 -0.31127,-12.25 -0.53776,-3.70446 -0.93843,-4.25 -3.12142,-4.25 -1.37746,0 -3.36461,-0.46033 -4.41589,-1.02296 -1.38396,-0.74067 -2.95255,-0.60399 -5.68426,0.49532 -3.29912,1.32764 -3.52911,1.33052 -1.83171,0.023 1.06762,-0.82243 2.33168,-1.49532 2.80902,-1.49532 0.47733,0 0.58977,-0.45 0.24985,-1 -0.85732,-1.38718 1.84009,-1.25991 3.2535,0.1535 1.48912,1.48912 6.95551,1.33289 8.86689,-0.25341 0.8771,-0.72793 1.35889,-2.48868 1.18068,-4.31492 -0.27152,-2.78231 -0.69374,-3.13457 -4.30107,-3.58839 -2.87706,-0.36195 -3.50628,-0.705 -2.24132,-1.22195 0.96728,-0.3953 2.90907,-0.28135 4.3151,0.25322 3.57564,1.35946 3.57747,1.35699 1.78463,-2.40264 -0.88507,-1.85603 -3.01529,-4.10142 -4.73382,-4.98977 -1.71852,-0.88835 -5.50922,-2.94834 -8.42376,-4.57775 -6.45729,-3.61002 -15.7991,-7.00985 -19.76741,-7.19407 -2.58091,-0.11982 -2.64538,-0.19058 -0.53645,-0.58881 6.08263,-1.14861 29.73751,9.53725 34.80982,15.72499 1.67467,2.04294 1.66068,12.45014 -0.0186,13.84382 -0.98991,0.82155 -1.24154,4.34846 -1.02544,14.37245 0.15752,7.30605 0.60045,14.85873 0.98429,16.78373 1.06923,5.36214 1.06759,5.39461 -0.35877,7.10652 -0.85847,1.03034 -2.27803,1.42693 -3.95801,1.10578 -2.40701,-0.46013 -2.56563,-0.28628 -1.9558,2.14348 0.50754,2.02226 0.29246,2.64422 -0.91442,2.64422 -0.86794,0 -1.28778,0.46971 -0.93297,1.04381 0.35481,0.57409 0.13699,1.65604 -0.48404,2.40434 -1.4332,1.7269 -0.55598,5.35889 3.15237,13.05185 1.59075,3.3 2.68967,6.7875 2.44205,7.75 -0.27026,1.05053 0.11192,1.75 0.95617,1.75 0.77351,0 1.40638,0.63769 1.40638,1.41709 0,0.77941 0.91781,3.55826 2.03958,6.17524 2.62862,5.88726 1.77858,8.66275 -0.60427,1.8562 -1.13142,-3.27169 -2.5472,-5.85104 -3.14618,-5.73188 -0.59898,0.11916 -1.36764,-0.89334 -1.70814,-2.25 -0.3405,-1.35666 -1.06052,-2.46665 -1.60004,-2.46665 -1.37609,0 -1.16551,2.17307 0.41196,4.25118 0.73111,0.96314 1.13061,2.79051 0.88778,4.06082 -0.4281,2.6512 2.66451,5.72925 2.83531,2.56044 0.0665,-1.36051 0.29575,-1.70552 0.53742,-0.80887 -1.45725,18.89671 -5.88786,-7.96186 -8.48754,-10.93324 z m -12.57512,0.24557 c -0.51315,-1.33723 -0.92004,-1.44663 -1.86518,-0.50149 -0.94515,0.94515 -0.88978,1.40607 0.25382,2.11285 1.86211,1.15085 2.44691,0.56606 1.61136,-1.61136 z m 17.40924,-1.31689 c 0,-0.51754 -0.45,-1.2191 -1,-1.55902 -0.55,-0.33992 -1,-1.46492 -1,-2.5 0,-1.72732 -1.68363,-3.6736 -2.46552,-2.85014 -0.6119,0.64444 2.66731,7.85014 3.57247,7.85014 0.49118,0 0.89305,-0.42344 0.89305,-0.94098 z m -16,-2 c 0,-0.51754 -0.45,-1.2191 -1,-1.55902 -0.55,-0.33992 -1,0.0835 -1,0.94098 0,0.85746 0.45,1.55902 1,1.55902 0.55,0 1,-0.42344 1,-0.94098 z m -0.5603,13.84341 c -0.86552,-1.40044 1.31634,-1.90131 2.43112,-0.55809 0.82853,0.99832 0.723,1.32233 -0.43069,1.32233 -0.84046,0 -1.74065,-0.34391 -2.00043,-0.76424 z m -66.5253,-7.90243 c 0.0302,0.825 -0.38124,2.175 -0.9144,3 -2.27141,2.92932 0.66742,-6.01629 0.9144,-3 z m 11.16943,2.5 c 0,-0.55 0.86228,-2.575 1.91617,-4.5 1.0539,-1.925 1.91617,-3.05 1.91617,-2.5 0,0.55 -0.86227,2.575 -1.91617,4.5 -1.05389,1.925 -1.91617,3.05 -1.91617,2.5 z m 58.78861,-1.25 c -1.24387,-1.58606 -1.2085,-1.62143 0.37756,-0.37756 1.66575,1.30637 2.19548,2.12756 1.37244,2.12756 -0.20765,0 -0.99515,-0.7875 -1.75,-1.75 z m -68.87244,-3.8922 c 0,-0.53655 0.69983,-1.84905 1.55517,-2.91667 1.46638,-1.83031 1.48719,-1.7984 0.36454,0.55887 -1.45781,3.06103 -1.91971,3.62834 -1.91971,2.3578 z m 3.56429,-6.65093 c 0.37554,-0.98622 0.9347,-1.54122 1.24258,-1.23333 0.30789,0.30789 6.4e-4,1.11479 -0.68278,1.79313 -0.98762,0.98026 -1.10248,0.8654 -0.55979,-0.5598 z m 13.60335,-3.75792 c 0.58498,-1.67807 1.24916,-2.86548 1.47596,-2.63868 0.49521,0.49521 -1.39173,5.68973 -2.06683,5.68973 -0.26,0 0.006,-1.37297 0.59087,-3.05105 z m 34.7048,-2.69895 c -1.24387,-1.58606 -1.2085,-1.62143 0.37756,-0.37756 1.66575,1.30637 2.19548,2.12756 1.37244,2.12756 -0.20765,0 -0.99515,-0.7875 -1.75,-1.75 z m -52.67749,-3.75 c 0.0204,-1.65 0.2445,-2.20394 0.49804,-1.23097 0.25355,0.97297 0.23687,2.32297 -0.0371,3 -0.27392,0.67703 -0.48137,-0.11903 -0.46099,-1.76903 z m 8.83568,1 c 0,-0.55 0.43622,-1.675 0.96937,-2.5 0.53316,-0.825 0.96938,-1.05 0.96938,-0.5 0,0.55 -0.43622,1.675 -0.96938,2.5 -0.53315,0.825 -0.96937,1.05 -0.96937,0.5 z m -7.74461,-9 c 0.007,-2.75 0.20171,-3.75631 0.43156,-2.23625 0.22986,1.52006 0.22371,3.77006 -0.0137,5 -0.23736,1.22994 -0.42542,-0.0137 -0.41791,-2.76375 z m 9.86231,3.5 c 0,-0.825 0.83325,-3.3 1.85167,-5.5 1.01842,-2.2 1.85167,-3.325 1.85167,-2.5 0,0.825 -0.83325,3.3 -1.85167,5.5 -1.01842,2.2 -1.85167,3.325 -1.85167,2.5 z m 10.93062,-0.58333 c 0.048,-1.16495 0.28494,-1.4019 0.60417,-0.60417 0.28887,0.72188 0.25334,1.58438 -0.0789,1.91667 -0.3323,0.33229 -0.56865,-0.25834 -0.52522,-1.3125 z m 5.07894,-0.41667 c 0,-1.375 0.22698,-1.9375 0.50439,-1.25 0.27741,0.6875 0.27741,1.8125 0,2.5 -0.27741,0.6875 -0.50439,0.125 -0.50439,-1.25 z m 1.03706,-8.5 c 0.0204,-1.65 0.2445,-2.20394 0.49804,-1.23097 0.25354,0.97297 0.23687,2.32297 -0.037,3 -0.27398,0.67703 -0.48142,-0.11903 -0.46104,-1.76903 z m 47.80505,-0.5 c -0.90129,-0.58246 -1.02463,-0.97549 -0.30902,-0.98469 0.65504,-0.008 1.4691,0.43469 1.80902,0.98469 0.7673,1.24153 0.42112,1.24153 -1.5,0 z m -60.43633,-1.5 c 0.33534,-1.1 2.11759,-7.85 3.96056,-15 1.84298,-7.15 3.36586,-12.1 3.3842,-11 0.0183,1.1 -0.84046,5.15 -1.90843,9 -1.06797,3.85 -1.98824,7.9 -2.04504,9 -0.0568,1.1 -0.98027,3.8 -2.05214,6 -1.07187,2.2 -1.67449,3.1 -1.33915,2 z m -3.33166,-3.5 c 0,-1.925 0.20579,-2.7125 0.45732,-1.75 0.25152,0.9625 0.25152,2.5375 0,3.5 -0.25153,0.9625 -0.45732,0.175 -0.45732,-1.75 z m 13.84694,1.41667 c 0.048,-1.16495 0.28494,-1.4019 0.60417,-0.60417 0.28887,0.72188 0.25334,1.58438 -0.0789,1.91667 -0.3323,0.33229 -0.56865,-0.25834 -0.52522,-1.3125 z m -22.76908,-5.91667 c 0.006,-3.3 0.1923,-4.52944 0.41486,-2.73209 0.22256,1.79735 0.21797,4.49735 -0.0102,6 -0.22818,1.50265 -0.41027,0.0321 -0.40466,-3.26791 z m 41.72824,2.85148 c 0.84597,-0.22909 2.29649,-1.63938 3.22339,-3.134 0.92691,-1.49461 1.69726,-2.1254 1.71189,-1.40174 0.0534,2.64188 -2.08114,5.1823 -4.25857,5.06826 -1.33131,-0.0697 -1.60126,-0.28215 -0.67671,-0.53252 z m -16.6775,-3.65211 c 0.99291,-3.9561 4.77537,-13.89884 5.14271,-13.51837 0.68977,0.71443 -3.10622,13.42708 -4.42199,14.8091 -1.2367,1.29897 -1.32915,1.13342 -0.72072,-1.29073 z m 21.23416,-4.54603 c -0.32081,-0.51907 0.15354,-1.22652 1.0541,-1.57209 2.21014,-0.84811 2.72698,-0.13807 0.96432,1.32481 -0.85565,0.71013 -1.67065,0.80998 -2.01842,0.24728 z m 25.6867,-0.44446 c 0.31139,-0.81146 -0.41228,-1.36625 -1.94791,-1.49335 -1.38576,-0.11469 -2.1807,0.22279 -1.83652,0.77967 0.35242,0.57024 -0.0789,0.71873 -1.02895,0.35418 -2.31883,-0.88982 -0.1102,-2.11829 5.2717,-2.93221 2.74576,-0.41525 4.0155,-1.0422 3.6033,-1.77918 -0.44367,-0.79323 -0.25218,-0.78297 0.63206,0.0339 0.69771,0.64452 1.89383,0.93191 2.65805,0.63866 0.9554,-0.36663 1.19631,-0.0298 0.77115,1.07814 -0.67146,1.7498 -2.40435,2.21303 -2.40435,0.64273 0,-1.64535 -2.8883,0.0413 -3.52932,2.06099 -0.333,1.04919 -1.07328,1.90762 -1.64506,1.90762 -0.57178,0 -0.81664,-0.58101 -0.54415,-1.29112 z m -20.60563,-3.57728 c 0.53996,-2.06482 0.31422,-2.16481 -3.80089,-1.68361 l -4.37495,0.51158 3.92374,-1.29864 c 3.8076,-1.26019 8.19146,-5.66093 5.63922,-5.66093 -0.64955,0 -0.87319,-0.49804 -0.49698,-1.10676 0.47682,-0.77151 0.94407,-0.69578 1.54249,0.25 1.10844,1.75182 0.0474,7.94452 -1.674,9.77015 -1.12956,1.19797 -1.24519,1.07881 -0.75863,-0.78179 z m -42.59689,-1.71493 c 0.048,-1.16495 0.28494,-1.4019 0.60417,-0.60417 0.28887,0.72188 0.25334,1.58438 -0.0789,1.91667 -0.3323,0.33229 -0.56865,-0.25834 -0.52522,-1.3125 z m -9.36663,-6.41667 c 0.30401,-3.575 0.71811,-6.6875 0.92022,-6.91667 0.66871,-0.75824 0.14562,7.36133 -0.67107,10.41667 -0.50527,1.89025 -0.59744,0.59554 -0.24915,-3.5 z m 78.50017,4.81249 c -0.6534,-0.6534 -3.32953,-1.09468 -5.95,-0.98113 -3.46635,0.15021 -4.35426,-0.0667 -3.26249,-0.79718 1.65623,-1.10808 8.93426,-1.38037 11.41821,-0.42719 1.90041,0.72925 2.12164,3.39301 0.28179,3.39301 -0.715,0 -1.83438,-0.53438 -2.48751,-1.18751 z m -46.38799,-5.48667 c 0.42673,-2.09296 0.67819,-2.34442 0.96961,-0.9696 0.2164,1.02092 -0.0429,2.29254 -0.57615,2.82582 -0.62614,0.62614 -0.76551,-0.0314 -0.39346,-1.85622 z m -23.55213,-2.32582 c 0,-2.475 0.19501,-3.4875 0.43336,-2.25 0.23836,1.2375 0.23836,3.2625 0,4.5 -0.23835,1.2375 -0.43336,0.225 -0.43336,-2.25 z m 44.70801,-0.74346 c 2.46421,-0.21673 5.16421,-0.92561 6,-1.5753 1.32751,-1.03191 1.34612,-0.96001 0.14718,0.56876 -0.99866,1.27339 -2.63277,1.70242 -6,1.57529 l -4.62756,-0.1747 z m -31.90143,-2.83987 c 0.048,-1.16495 0.28494,-1.4019 0.60417,-0.60417 0.28887,0.72188 0.25334,1.58438 -0.0789,1.91667 -0.3323,0.33229 -0.56865,-0.25834 -0.52522,-1.3125 z m 38.92105,-1.41667 c -1.21296,-0.78387 -1.06944,-0.97231 0.75,-0.98469 1.2375,-0.008 2.25,0.43469 2.25,0.98469 0,1.25292 -1.06124,1.25292 -3,0 z m -36.92913,-3.5 c 0,-0.55 0.64311,-2.125 1.42913,-3.5 0.78602,-1.375 1.42913,-2.05 1.42913,-1.5 0,0.55 -0.64311,2.125 -1.42913,3.5 -0.78602,1.375 -1.42913,2.05 -1.42913,1.5 z m -21.03949,-1.01489 c -0.0705,-2.27852 6.21385,-13.59536 8.2637,-14.88135 1.21271,-0.7608 4.18025,-2.67038 6.59454,-4.24352 8.22726,-5.36083 10.51277,-6.2658 15.61038,-6.18109 l 5,0.0831 -5.85793,0.74815 c -4.53699,0.57943 -7.17556,1.67735 -11.70114,4.86888 -3.21376,2.26641 -6.10984,4.12074 -6.43571,4.12074 -1.63733,0 -5.83505,5.21483 -8.47581,10.5295 -1.63166,3.28377 -2.98076,5.5138 -2.99803,4.95561 z m 56.61419,-4.17716 c 1.18006,-0.23082 2.93731,-1.29454 3.90499,-2.36382 0.96768,-1.06927 2.16286,-1.94413 2.65595,-1.94413 0.49309,0 -0.31736,1.125 -1.80101,2.5 -1.48365,1.375 -3.64434,2.43872 -4.80152,2.36382 -2.09221,-0.13542 -2.09198,-0.13853 0.0416,-0.55587 z m -32.64557,-1.68551 c 0,-0.20765 0.7875,-0.99515 1.75,-1.75 1.58606,-1.24387 1.62143,-1.2085 0.37756,0.37756 -1.30637,1.66575 -2.12756,2.19548 -2.12756,1.37244 z m 44.25,-1.84294 c -1.2375,-0.59682 -2.25,-1.67514 -2.25,-2.39626 0,-0.72113 -1.67946,-2.45236 -3.73213,-3.84719 -2.05268,-1.39483 -3.31802,-2.53605 -2.81188,-2.53605 1.30664,0 7.52897,4.34628 7.53718,5.2647 0.004,0.42058 1.46933,1.6564 3.25683,2.74626 3.3974,2.07144 1.897,2.648 -2,0.76854 z"
               id="path3028"
               style="fill:#ffffff"
               inkscape:connector-curvature="0"
               sodipodi:nodetypes="csssssscccssssscccsssssssssssssscccsssssssssssscsssscssscsssssssssssssssssssssssssssccssssccccssssssssssssssssssscccsssssssssssssccscccsscsssscscccssssscscccssssscscccsssscsccscsssscsssssssscsccccsscssscssssssssscsccssccssssccascsssssacscccsssssscssssscssssssssscscscccscssssssscssscssssccsssssssssssssscss" />
          </g>
        </g>
      </g>
    </g>
  </g>
</svg>
