<?xml version="1.0" encoding="UTF-8" standalone="no"?>
<!-- Created with Inkscape (http://www.inkscape.org/) -->

<svg
   xmlns:dc="http://purl.org/dc/elements/1.1/"
   xmlns:cc="http://creativecommons.org/ns#"
   xmlns:rdf="http://www.w3.org/1999/02/22-rdf-syntax-ns#"
   xmlns:svg="http://www.w3.org/2000/svg"
   xmlns="http://www.w3.org/2000/svg"
   version="1.1"
   width="210mm"
   height="185mm"
   viewBox="0 0 210 185"
   id="svg3120"
   xml:space="preserve"
   style="fill-rule:evenodd"><metadata
     id="metadata3132"><rdf:RDF><cc:Work
         rdf:about=""><dc:format>image/svg+xml</dc:format><dc:type
           rdf:resource="http://purl.org/dc/dcmitype/StillImage" /><dc:title></dc:title></cc:Work></rdf:RDF></metadata><defs
     id="defs3122"><style
       type="text/css"
       id="style3124" /></defs><path
     d="m 209.252,36.7923 c 0,11.3382 -5.0752,19.7699 -15.2265,25.1728 -3.2743,1.7602 -12.6884,4.8301 -28.2832,9.1279 -10.0691,2.7832 -15.1037,6.6309 -15.1037,11.5015 0,6.6309 3.4789,9.9464 10.4375,9.9464 4.7068,0 7.081,-2.7015 7.081,-8.1455 3.1926,0 4.7889,2.6197 4.7889,7.8182 0,3.6838 -1.9236,6.467 -5.7713,8.3906 -3.1109,1.5963 -6.672,2.3742 -10.6831,2.3742 -4.2161,0 -7.6949,-0.9413 -10.3964,-2.8654 -1.7602,13.2618 -11.4609,22.5941 -29.0205,27.9564 l 0,4.2978 2.8654,0 0,2.9877 5.6485,0 c 1.1052,0.5734 1.678,1.4735 1.678,2.6609 0,1.3507 -0.5728,2.6193 -1.678,3.8472 l -5.4029,0 0,2.7426 -3.111,0 0,4.5433 c 0,6.017 0.4912,10.8059 1.5553,14.408 2.7836,0 5.1984,0.2456 7.1631,0.6957 3.1516,0.8185 4.7073,2.2514 4.7073,4.3389 6.3853,-0.0822 9.5779,3.4788 9.5779,10.6831 0,0.7774 -2.497,1.5963 -7.4498,2.3737 -9.578,1.5963 -18.9103,2.4153 -27.9149,2.4153 -8.7184,0 -17.7234,-0.7779 -26.9741,-2.2925 -5.1979,-0.8596 -7.8177,-1.7191 -7.8177,-2.4965 0,-7.2043 3.1926,-10.7653 9.619,-10.6831 -0.0822,-2.0875 1.4736,-3.5204 4.6662,-4.3389 2.0053,-0.4501 4.4206,-0.6957 7.3266,-0.6957 0.9412,-3.4382 1.4324,-7.9816 1.4324,-13.6712 l 0,-5.2801 -3.1105,0 0,-2.7426 -5.2801,0 c -1.228,-1.3096 -1.8013,-2.5787 -1.8013,-3.8472 0,-1.1874 0.5733,-2.0875 1.8013,-2.6609 l 5.4846,0 0,-2.9877 2.906,0 0,-4.2978 C 75.3658,122.7893 65.7468,113.4569 64.0688,100.113 c -2.7426,1.9241 -6.2625,2.8654 -10.5603,2.8654 -4.0933,0 -7.6544,-0.7779 -10.6831,-2.3742 -3.766,-1.9236 -5.6485,-4.7068 -5.6485,-8.3906 0,-5.1985 1.5552,-7.8182 4.7067,-7.8182 -0.0817,5.444 2.2514,8.1455 7.0404,8.1455 7.0404,0 10.5603,-3.3155 10.5603,-9.9464 0,-4.8706 -5.0757,-8.7183 -15.2265,-11.5015 C 28.663,66.7952 19.2489,63.7253 15.9741,61.9651 5.8233,56.5622 0.7476,48.1305 0.7476,36.7923 c 0,-7.4904 2.5787,-13.4256 7.7771,-17.7234 3.7656,-3.1516 9.8236,-5.8941 18.2147,-8.3089 1.4735,-1.2691 2.6603,-3.1516 3.6016,-5.6075 l 6.0169,0 c 0.5734,5.198 5.5257,7.7361 14.8581,7.6539 l 0.2456,-2.8649 c 6.3036,-6.0169 24.1498,-9.005 53.4976,-9.005 29.3067,0 47.1935,2.9881 53.5788,9.005 l 0.2456,2.8649 2.4153,0 c 7.736,0 11.911,-2.5376 12.4428,-7.6539 l 6.0169,0 c 0.8596,2.4559 2.0875,4.3384 3.6021,5.6075 8.309,2.4148 14.3259,5.1573 18.0919,8.3089 5.2801,4.2978 7.8994,10.233 7.8994,17.7234 z m -16.7817,-4.5434 c 0,-8.8822 -4.8707,-13.3028 -14.6125,-13.3028 -10.5603,0 -15.3903,5.1984 -14.5308,15.5542 l -4.2978,2.292 -5.5257,-10.0691 c -2.7015,11.3382 -4.6662,24.2722 -5.853,38.7213 3.0287,-2.4559 8.8411,-5.3213 17.4778,-8.5139 9.1274,-3.2744 15.3082,-6.0986 18.5825,-8.5139 5.8535,-4.1339 8.7595,-9.5369 8.7595,-16.1678 z M 147.7733,9.6959 C 147.1182,8.5908 140.4467,7.3628 127.7167,6.0938 116.8702,5.0704 109.2976,4.5386 105.082,4.5386 c -9.2917,0 -20.3432,0.9823 -33.1138,2.8648 -2.4965,0.3278 -5.6074,0.9824 -9.373,1.9241 -0.1228,0.0817 -0.2456,0.2045 -0.3277,0.3684 0,0.9002 3.7249,1.8008 11.2564,2.7421 11.0515,1.3918 21.489,2.0469 31.4353,2.0469 5.7302,0 13.3435,-0.3684 22.7575,-1.0645 12.8117,-1.0641 19.4837,-2.292 20.0566,-3.7245 z m 3.6838,4.2156 c -0.4501,0.0822 -4.8707,1.0646 -13.1801,2.9882 -1.678,0.4095 -2.4965,1.3918 -2.4965,2.9881 0,6.0987 -0.0411,15.2265 -0.1228,27.4648 -0.0822,12.2383 -0.1228,21.3662 -0.1228,27.4648 0,23.4131 -8.9233,37.9028 -26.7691,43.3874 13.8347,-0.4501 23.1259,-7.4493 27.8332,-20.9567 2.7015,-7.941 4.0933,-20.5888 4.0933,-38.0255 0,-10.1509 0.4912,-18.0097 1.5552,-23.6171 1.5963,-7.7771 4.6662,-14.9809 9.2096,-21.694 z m -49.4043,99.7499 c -11.0921,-5.7713 -16.659,-22.0618 -16.659,-48.9131 0,-5.5257 0.2456,-13.0979 0.7779,-22.7169 0.5318,-9.6597 0.7774,-17.2318 0.7774,-22.7575 l -6.5898,-0.9418 c 1.4324,5.6079 2.1692,10.9698 2.1692,16.0861 0,2.2924 -0.1228,5.7307 -0.3273,10.3147 -0.1639,4.5433 -0.2867,7.9816 -0.2867,10.2741 0,37.2883 6.7131,56.8125 20.1383,58.6544 z m -0.8185,4.5434 c -7.4494,-2.2103 -13.139,-8.2272 -17.1501,-17.969 -3.1926,-7.8177 -4.789,-16.2905 -4.789,-25.4184 L 79.1724,19.8878 c 0,-1.3507 -0.9006,-2.2513 -2.6608,-2.6197 -5.6486,-1.228 -11.6244,-2.3331 -17.8458,-3.3566 4.5434,6.7131 7.5311,13.9169 9.0046,21.694 1.1051,5.5257 1.6785,13.3845 1.6785,23.6171 0,17.4367 1.3507,30.0845 4.0522,38.0255 4.6251,13.5074 13.9164,20.5066 27.8332,20.9567 z M 62.3903,65.4445 C 61.0806,50.9954 59.1159,38.0614 56.4961,26.7232 l -5.5257,10.0691 -4.2978,-2.292 0.1228,-2.4969 C 47.2049,23.285 42.3342,18.9461 32.2651,18.9461 c -9.8235,0 -14.7353,4.4206 -14.7353,13.3028 0,6.6309 2.8649,12.0339 8.6362,16.1678 3.3565,2.4153 9.5373,5.2395 18.583,8.5139 8.6367,3.1926 14.4897,6.058 17.6413,8.5139 z M 21.4998,59.7137 C 11.963,55.1297 7.2151,47.4343 7.2151,36.5467 c 0,-6.7125 2.8243,-12.6888 8.5134,-17.969 -3.9294,0.8596 -7.0399,3.1927 -9.373,6.9587 -1.9647,3.4382 -2.9881,7.2854 -2.9881,11.5015 0,4.9529 1.8419,9.578 5.5257,13.9168 3.3566,3.9295 7.5722,6.8354 12.6067,8.759 z m 113.176,114.526 -2.6198,0 c -3.0288,0 -7.6132,0.0817 -13.6712,0.2862 -6.0986,0.205 -10.642,0.2867 -13.6708,0.2867 -3.2748,0 -8.1866,-0.0817 -14.6947,-0.2867 -6.5081,-0.2045 -11.3787,-0.2862 -14.5714,-0.2862 8.4728,2.0464 18.2146,3.1105 29.2661,3.1105 11.4199,0 21.4068,-1.0641 29.9618,-3.1105 z m 60.0869,-150.382 c 1.0234,3.3565 1.5557,6.6719 1.5557,9.9463 0,6.9586 -4.6662,13.7123 -14.0396,20.261 4.2567,0 8.3911,-1.9236 12.4433,-5.8119 4.0111,-3.8888 6.0169,-7.9816 6.0169,-12.2794 0,-6.1808 -1.9647,-10.1919 -5.9763,-12.116 z"
     id="path3128"
     style="fill:#806600" /></svg>